<?xml version="1.0" encoding="UTF-8"?><svg id="Calque_1" xmlns="http://www.w3.org/2000/svg" viewBox="0 0 397.1 324.17"><defs><style>.cls-1{fill:#fff;stroke:#000;stroke-miterlimit:10;}</style></defs><path class="cls-1" d="M316.62,141.39c-43.24-16.74-62.31-31.15-62.31-60.45,0-21.39,16.27-46.96,59.05-46.96,28.37,0,49.29,9.3,59.52,14.88l11.16-33.01c-13.95-7.9-37.2-15.34-69.28-15.34-33.73,0-61.18,11.12-78.97,29.34V5.39h-38.13V136.52c0,48.82,.93,86.95,4.65,128.8l-.93,.46c-14.88-32.08-33.01-65.1-56.26-101.83L44.67,5.39H.5V318.8H38.63V184.88c0-52.08-.93-89.74-3.25-129.27l1.4-.46c15.81,33.94,36.73,69.75,58.59,104.62l99.51,159.03h40.92v-2.59c15.55,4.57,33.77,7.47,51.07,7.47,73.93,0,109.74-41.85,109.74-90.21s-26.97-71.61-79.98-92.07Zm-26.97,148.8c-19.42,0-38.15-4.51-53.86-11.01V139.96c14.29,14.32,34.91,25.43,60.37,34.45,42.31,16.27,59.05,33.01,59.05,62.31,0,31.62-24.18,53.47-65.56,53.47Z"/></svg>